%TF.GenerationSoftware,KiCad,Pcbnew,(6.0.5)*%
%TF.CreationDate,2022-06-03T16:10:37+02:00*%
%TF.ProjectId,sldrlss_stlink,736c6472-6c73-4735-9f73-746c696e6b2e,rev?*%
%TF.SameCoordinates,Original*%
%TF.FileFunction,Copper,L2,Bot*%
%TF.FilePolarity,Positive*%
%FSLAX46Y46*%
G04 Gerber Fmt 4.6, Leading zero omitted, Abs format (unit mm)*
G04 Created by KiCad (PCBNEW (6.0.5)) date 2022-06-03 16:10:37*
%MOMM*%
%LPD*%
G01*
G04 APERTURE LIST*
%TA.AperFunction,ComponentPad*%
%ADD10C,3.600000*%
%TD*%
%TA.AperFunction,ComponentPad*%
%ADD11C,1.800000*%
%TD*%
%TA.AperFunction,ViaPad*%
%ADD12C,0.800000*%
%TD*%
%TA.AperFunction,Conductor*%
%ADD13C,0.500000*%
%TD*%
G04 APERTURE END LIST*
D10*
%TO.P,J1,*%
%TO.N,*%
X106680000Y-57150000D03*
X111760000Y-57150000D03*
X109220000Y-44450000D03*
D11*
%TO.P,J1,1,Pin_1*%
%TO.N,VCC*%
X107950000Y-48260000D03*
%TO.P,J1,2,Pin_2*%
%TO.N,SWDIO*%
X110490000Y-48260000D03*
%TO.P,J1,3,Pin_3*%
%TO.N,NRST*%
X107950000Y-50800000D03*
%TO.P,J1,4,Pin_4*%
%TO.N,SWCLK*%
X110490000Y-50800000D03*
%TO.P,J1,5,Pin_5*%
%TO.N,GND*%
X107950000Y-53340000D03*
%TO.P,J1,6,Pin_6*%
%TO.N,SWO*%
X110490000Y-53340000D03*
%TD*%
D12*
%TO.N,VCC*%
X101600000Y-46990000D03*
%TO.N,GND*%
X97536000Y-52070000D03*
X112395000Y-45720000D03*
X101600000Y-48260000D03*
X97536000Y-49530000D03*
X97536000Y-48260000D03*
%TD*%
D13*
%TO.N,VCC*%
X106680000Y-46990000D02*
X101600000Y-46990000D01*
X107950000Y-48260000D02*
X106680000Y-46990000D01*
%TD*%
%TA.AperFunction,Conductor*%
%TO.N,GND*%
G36*
X107768631Y-42438502D02*
G01*
X107815124Y-42492158D01*
X107825228Y-42562432D01*
X107795734Y-42627012D01*
X107783590Y-42639230D01*
X107584142Y-42814142D01*
X107581433Y-42817231D01*
X107387332Y-43038559D01*
X107387328Y-43038565D01*
X107384614Y-43041659D01*
X107216491Y-43293274D01*
X107082648Y-43564680D01*
X106985376Y-43851234D01*
X106984573Y-43855273D01*
X106984571Y-43855279D01*
X106927143Y-44143991D01*
X106926339Y-44148034D01*
X106926070Y-44152145D01*
X106926069Y-44152149D01*
X106909284Y-44408236D01*
X106906547Y-44450000D01*
X106926339Y-44751966D01*
X106985376Y-45048766D01*
X107082648Y-45335320D01*
X107216491Y-45606726D01*
X107384614Y-45858341D01*
X107387328Y-45861435D01*
X107387332Y-45861441D01*
X107580320Y-46081500D01*
X107584142Y-46085858D01*
X107587231Y-46088567D01*
X107808559Y-46282668D01*
X107808565Y-46282672D01*
X107811659Y-46285386D01*
X107815085Y-46287675D01*
X107815090Y-46287679D01*
X107988205Y-46403350D01*
X108063273Y-46453509D01*
X108066972Y-46455333D01*
X108066977Y-46455336D01*
X108130531Y-46486677D01*
X108334680Y-46587352D01*
X108338585Y-46588677D01*
X108338586Y-46588678D01*
X108617327Y-46683298D01*
X108617330Y-46683299D01*
X108621234Y-46684624D01*
X108625273Y-46685427D01*
X108625279Y-46685429D01*
X108913991Y-46742857D01*
X108913994Y-46742857D01*
X108918034Y-46743661D01*
X108922145Y-46743930D01*
X108922149Y-46743931D01*
X109215881Y-46763183D01*
X109220000Y-46763453D01*
X109224119Y-46763183D01*
X109517851Y-46743931D01*
X109517855Y-46743930D01*
X109521966Y-46743661D01*
X109526006Y-46742857D01*
X109526009Y-46742857D01*
X109814721Y-46685429D01*
X109814727Y-46685427D01*
X109818766Y-46684624D01*
X109822670Y-46683299D01*
X109822673Y-46683298D01*
X110101414Y-46588678D01*
X110101415Y-46588677D01*
X110105320Y-46587352D01*
X110309469Y-46486677D01*
X110373023Y-46455336D01*
X110373028Y-46455333D01*
X110376727Y-46453509D01*
X110451795Y-46403350D01*
X110624910Y-46287679D01*
X110624915Y-46287675D01*
X110628341Y-46285386D01*
X110631435Y-46282672D01*
X110631441Y-46282668D01*
X110852769Y-46088567D01*
X110855858Y-46085858D01*
X110859680Y-46081500D01*
X111052668Y-45861441D01*
X111052672Y-45861435D01*
X111055386Y-45858341D01*
X111223509Y-45606726D01*
X111357352Y-45335320D01*
X111454624Y-45048766D01*
X111513661Y-44751966D01*
X111533453Y-44450000D01*
X111530716Y-44408236D01*
X111513931Y-44152149D01*
X111513930Y-44152145D01*
X111513661Y-44148034D01*
X111512857Y-44143991D01*
X111455429Y-43855279D01*
X111455427Y-43855273D01*
X111454624Y-43851234D01*
X111357352Y-43564680D01*
X111223509Y-43293274D01*
X111055386Y-43041659D01*
X111052672Y-43038565D01*
X111052668Y-43038559D01*
X110858567Y-42817231D01*
X110855858Y-42814142D01*
X110656412Y-42639231D01*
X110618385Y-42579278D01*
X110618807Y-42508283D01*
X110657546Y-42448786D01*
X110722301Y-42419678D01*
X110739490Y-42418500D01*
X111710633Y-42418500D01*
X111730018Y-42420000D01*
X111744851Y-42422310D01*
X111744855Y-42422310D01*
X111753724Y-42423691D01*
X111762626Y-42422527D01*
X111762629Y-42422527D01*
X111770012Y-42421561D01*
X111794591Y-42420767D01*
X111821442Y-42422527D01*
X112016922Y-42435340D01*
X112033262Y-42437491D01*
X112155477Y-42461801D01*
X112277696Y-42486112D01*
X112293606Y-42490375D01*
X112529600Y-42570484D01*
X112544826Y-42576791D01*
X112768342Y-42687016D01*
X112782616Y-42695257D01*
X112989829Y-42833713D01*
X113002905Y-42843746D01*
X113190278Y-43008068D01*
X113201932Y-43019722D01*
X113366254Y-43207095D01*
X113376287Y-43220171D01*
X113514743Y-43427384D01*
X113522984Y-43441658D01*
X113633209Y-43665174D01*
X113639515Y-43680398D01*
X113719625Y-43916394D01*
X113723889Y-43932307D01*
X113772509Y-44176738D01*
X113774660Y-44193078D01*
X113788763Y-44408236D01*
X113787733Y-44431350D01*
X113787690Y-44434854D01*
X113786309Y-44443724D01*
X113787473Y-44452626D01*
X113787473Y-44452628D01*
X113790436Y-44475283D01*
X113791500Y-44491621D01*
X113791500Y-55630510D01*
X113771498Y-55698631D01*
X113717842Y-55745124D01*
X113647568Y-55755228D01*
X113582988Y-55725734D01*
X113570768Y-55713588D01*
X113398567Y-55517231D01*
X113395858Y-55514142D01*
X113392769Y-55511433D01*
X113171441Y-55317332D01*
X113171435Y-55317328D01*
X113168341Y-55314614D01*
X113164911Y-55312322D01*
X113164910Y-55312321D01*
X112920160Y-55148785D01*
X112916727Y-55146491D01*
X112913028Y-55144667D01*
X112913023Y-55144664D01*
X112773692Y-55075954D01*
X112645320Y-55012648D01*
X112641414Y-55011322D01*
X112362673Y-54916702D01*
X112362670Y-54916701D01*
X112358766Y-54915376D01*
X112354727Y-54914573D01*
X112354721Y-54914571D01*
X112066009Y-54857143D01*
X112066006Y-54857143D01*
X112061966Y-54856339D01*
X112057855Y-54856070D01*
X112057851Y-54856069D01*
X111764119Y-54836817D01*
X111760000Y-54836547D01*
X111755881Y-54836817D01*
X111462149Y-54856069D01*
X111462145Y-54856070D01*
X111458034Y-54856339D01*
X111453994Y-54857143D01*
X111453991Y-54857143D01*
X111165279Y-54914571D01*
X111165273Y-54914573D01*
X111161234Y-54915376D01*
X111157330Y-54916701D01*
X111157327Y-54916702D01*
X110878586Y-55011322D01*
X110874680Y-55012648D01*
X110746442Y-55075888D01*
X110606978Y-55144664D01*
X110606973Y-55144667D01*
X110603274Y-55146491D01*
X110351659Y-55314614D01*
X110348565Y-55317328D01*
X110348559Y-55317332D01*
X110127231Y-55511433D01*
X110124142Y-55514142D01*
X110121433Y-55517231D01*
X109927332Y-55738559D01*
X109927328Y-55738565D01*
X109924614Y-55741659D01*
X109756491Y-55993274D01*
X109622648Y-56264680D01*
X109525376Y-56551234D01*
X109466339Y-56848034D01*
X109446547Y-57150000D01*
X109446817Y-57154119D01*
X109464458Y-57423262D01*
X109466339Y-57451966D01*
X109467143Y-57456006D01*
X109467143Y-57456009D01*
X109512417Y-57683614D01*
X109525376Y-57748766D01*
X109622648Y-58035320D01*
X109756491Y-58306726D01*
X109924614Y-58558341D01*
X109927328Y-58561435D01*
X109927332Y-58561441D01*
X110098180Y-58756254D01*
X110124142Y-58785858D01*
X110264936Y-58909331D01*
X110323588Y-58960768D01*
X110361615Y-59020722D01*
X110361193Y-59091717D01*
X110322454Y-59151214D01*
X110257699Y-59180322D01*
X110240510Y-59181500D01*
X108199490Y-59181500D01*
X108131369Y-59161498D01*
X108084876Y-59107842D01*
X108074772Y-59037568D01*
X108104266Y-58972988D01*
X108116412Y-58960768D01*
X108175065Y-58909331D01*
X108315858Y-58785858D01*
X108341820Y-58756254D01*
X108512668Y-58561441D01*
X108512672Y-58561435D01*
X108515386Y-58558341D01*
X108683509Y-58306726D01*
X108817352Y-58035320D01*
X108914624Y-57748766D01*
X108927584Y-57683614D01*
X108972857Y-57456009D01*
X108972857Y-57456006D01*
X108973661Y-57451966D01*
X108975543Y-57423262D01*
X108993183Y-57154119D01*
X108993453Y-57150000D01*
X108973661Y-56848034D01*
X108914624Y-56551234D01*
X108817352Y-56264680D01*
X108683509Y-55993274D01*
X108515386Y-55741659D01*
X108512672Y-55738565D01*
X108512668Y-55738559D01*
X108318567Y-55517231D01*
X108315858Y-55514142D01*
X108312769Y-55511433D01*
X108091441Y-55317332D01*
X108091435Y-55317328D01*
X108088341Y-55314614D01*
X108084911Y-55312322D01*
X108084910Y-55312321D01*
X107840160Y-55148785D01*
X107836727Y-55146491D01*
X107833028Y-55144667D01*
X107833023Y-55144664D01*
X107693692Y-55075954D01*
X107565320Y-55012648D01*
X107561414Y-55011322D01*
X107282673Y-54916702D01*
X107282670Y-54916701D01*
X107278766Y-54915376D01*
X107274727Y-54914573D01*
X107274721Y-54914571D01*
X106986009Y-54857143D01*
X106986006Y-54857143D01*
X106981966Y-54856339D01*
X106977855Y-54856070D01*
X106977851Y-54856069D01*
X106684119Y-54836817D01*
X106680000Y-54836547D01*
X106675881Y-54836817D01*
X106382149Y-54856069D01*
X106382145Y-54856070D01*
X106378034Y-54856339D01*
X106373994Y-54857143D01*
X106373991Y-54857143D01*
X106085279Y-54914571D01*
X106085273Y-54914573D01*
X106081234Y-54915376D01*
X106077330Y-54916701D01*
X106077327Y-54916702D01*
X105798586Y-55011322D01*
X105794680Y-55012648D01*
X105666442Y-55075888D01*
X105526978Y-55144664D01*
X105526973Y-55144667D01*
X105523274Y-55146491D01*
X105271659Y-55314614D01*
X105268565Y-55317328D01*
X105268559Y-55317332D01*
X105047231Y-55511433D01*
X105044142Y-55514142D01*
X105041433Y-55517231D01*
X104847332Y-55738559D01*
X104847328Y-55738565D01*
X104844614Y-55741659D01*
X104676491Y-55993274D01*
X104542648Y-56264680D01*
X104445376Y-56551234D01*
X104386339Y-56848034D01*
X104366547Y-57150000D01*
X104366817Y-57154119D01*
X104384458Y-57423262D01*
X104386339Y-57451966D01*
X104387143Y-57456006D01*
X104387143Y-57456009D01*
X104432417Y-57683614D01*
X104445376Y-57748766D01*
X104542648Y-58035320D01*
X104676491Y-58306726D01*
X104844614Y-58558341D01*
X104847328Y-58561435D01*
X104847332Y-58561441D01*
X105018180Y-58756254D01*
X105044142Y-58785858D01*
X105184936Y-58909331D01*
X105243588Y-58960768D01*
X105281615Y-59020722D01*
X105281193Y-59091717D01*
X105242454Y-59151214D01*
X105177699Y-59180322D01*
X105160510Y-59181500D01*
X99109367Y-59181500D01*
X99089982Y-59180000D01*
X99075149Y-59177690D01*
X99075145Y-59177690D01*
X99066276Y-59176309D01*
X99057374Y-59177473D01*
X99057371Y-59177473D01*
X99049988Y-59178439D01*
X99025409Y-59179233D01*
X98980799Y-59176309D01*
X98803078Y-59164660D01*
X98786738Y-59162509D01*
X98664523Y-59138199D01*
X98542304Y-59113888D01*
X98526394Y-59109625D01*
X98290398Y-59029515D01*
X98275174Y-59023209D01*
X98051658Y-58912984D01*
X98037384Y-58904743D01*
X97830171Y-58766287D01*
X97817095Y-58756254D01*
X97629722Y-58591932D01*
X97618068Y-58580278D01*
X97453746Y-58392905D01*
X97443713Y-58379829D01*
X97305257Y-58172616D01*
X97297016Y-58158342D01*
X97186791Y-57934826D01*
X97180484Y-57919600D01*
X97123820Y-57752673D01*
X97100375Y-57683606D01*
X97096111Y-57667693D01*
X97047491Y-57423262D01*
X97045340Y-57406922D01*
X97031476Y-57195407D01*
X97032650Y-57172232D01*
X97032334Y-57172204D01*
X97032770Y-57167344D01*
X97033576Y-57162552D01*
X97033729Y-57150000D01*
X97029773Y-57122376D01*
X97028500Y-57104514D01*
X97028500Y-54501406D01*
X107153423Y-54501406D01*
X107158704Y-54508461D01*
X107335080Y-54611527D01*
X107344363Y-54615974D01*
X107551003Y-54694883D01*
X107560901Y-54697759D01*
X107777653Y-54741857D01*
X107787883Y-54743076D01*
X108008914Y-54751182D01*
X108019223Y-54750714D01*
X108238623Y-54722608D01*
X108248688Y-54720468D01*
X108460557Y-54656905D01*
X108470152Y-54653144D01*
X108668778Y-54555838D01*
X108677636Y-54550559D01*
X108735097Y-54509572D01*
X108743497Y-54498874D01*
X108736510Y-54485721D01*
X107962811Y-53712021D01*
X107948868Y-53704408D01*
X107947034Y-53704539D01*
X107940420Y-53708790D01*
X107160180Y-54489031D01*
X107153423Y-54501406D01*
X97028500Y-54501406D01*
X97028500Y-53310638D01*
X106537893Y-53310638D01*
X106550627Y-53531468D01*
X106552061Y-53541670D01*
X106600685Y-53757439D01*
X106603773Y-53767292D01*
X106686986Y-53972220D01*
X106691634Y-53981421D01*
X106780097Y-54125781D01*
X106790553Y-54135242D01*
X106799331Y-54131458D01*
X107577979Y-53352811D01*
X107585592Y-53338868D01*
X107585461Y-53337034D01*
X107581210Y-53330420D01*
X106803862Y-52553073D01*
X106792330Y-52546776D01*
X106780048Y-52556399D01*
X106724467Y-52637877D01*
X106719379Y-52646833D01*
X106626252Y-52847459D01*
X106622689Y-52857146D01*
X106563581Y-53070280D01*
X106561650Y-53080400D01*
X106538145Y-53300349D01*
X106537893Y-53310638D01*
X97028500Y-53310638D01*
X97028500Y-46990000D01*
X100686496Y-46990000D01*
X100706458Y-47179928D01*
X100765473Y-47361556D01*
X100768776Y-47367278D01*
X100768777Y-47367279D01*
X100788826Y-47402004D01*
X100860960Y-47526944D01*
X100865378Y-47531851D01*
X100865379Y-47531852D01*
X100923920Y-47596868D01*
X100988747Y-47668866D01*
X101087843Y-47740864D01*
X101137904Y-47777235D01*
X101143248Y-47781118D01*
X101149276Y-47783802D01*
X101149278Y-47783803D01*
X101195839Y-47804533D01*
X101317712Y-47858794D01*
X101411112Y-47878647D01*
X101498056Y-47897128D01*
X101498061Y-47897128D01*
X101504513Y-47898500D01*
X101695487Y-47898500D01*
X101701939Y-47897128D01*
X101701944Y-47897128D01*
X101788888Y-47878647D01*
X101882288Y-47858794D01*
X102004161Y-47804533D01*
X102050722Y-47783803D01*
X102050724Y-47783802D01*
X102056752Y-47781118D01*
X102062091Y-47777239D01*
X102062098Y-47777235D01*
X102068528Y-47772563D01*
X102142587Y-47748500D01*
X106313629Y-47748500D01*
X106381750Y-47768502D01*
X106402724Y-47785405D01*
X106524017Y-47906698D01*
X106558043Y-47969010D01*
X106560209Y-48009182D01*
X106557523Y-48034318D01*
X106537095Y-48225469D01*
X106537392Y-48230622D01*
X106537392Y-48230625D01*
X106543067Y-48329041D01*
X106550427Y-48456697D01*
X106551564Y-48461743D01*
X106551565Y-48461749D01*
X106583741Y-48604523D01*
X106601346Y-48682642D01*
X106603288Y-48687424D01*
X106603289Y-48687428D01*
X106678467Y-48872568D01*
X106688484Y-48897237D01*
X106809501Y-49094719D01*
X106961147Y-49269784D01*
X107139349Y-49417730D01*
X107143819Y-49420342D01*
X107147511Y-49422500D01*
X107196232Y-49474140D01*
X107209301Y-49543924D01*
X107182566Y-49609694D01*
X107159589Y-49632045D01*
X107011655Y-49743117D01*
X106851639Y-49910564D01*
X106848730Y-49914829D01*
X106848724Y-49914837D01*
X106833152Y-49937665D01*
X106721119Y-50101899D01*
X106623602Y-50311981D01*
X106561707Y-50535169D01*
X106537095Y-50765469D01*
X106537392Y-50770622D01*
X106537392Y-50770625D01*
X106543067Y-50869041D01*
X106550427Y-50996697D01*
X106551564Y-51001743D01*
X106551565Y-51001749D01*
X106583741Y-51144523D01*
X106601346Y-51222642D01*
X106603288Y-51227424D01*
X106603289Y-51227428D01*
X106678467Y-51412568D01*
X106688484Y-51437237D01*
X106809501Y-51634719D01*
X106961147Y-51809784D01*
X107139349Y-51957730D01*
X107143814Y-51960339D01*
X107147979Y-51962773D01*
X107196700Y-52014414D01*
X107209767Y-52084198D01*
X107183033Y-52149968D01*
X107166323Y-52166221D01*
X107155508Y-52180711D01*
X107162251Y-52193040D01*
X107937189Y-52967979D01*
X107951132Y-52975592D01*
X107952966Y-52975461D01*
X107959580Y-52971210D01*
X108738994Y-52191795D01*
X108746011Y-52178944D01*
X108738237Y-52168275D01*
X108736655Y-52167025D01*
X108695592Y-52109109D01*
X108692359Y-52038186D01*
X108727983Y-51976774D01*
X108741578Y-51965563D01*
X108757193Y-51954425D01*
X108862243Y-51879494D01*
X109026303Y-51716005D01*
X109029319Y-51711808D01*
X109029326Y-51711800D01*
X109116960Y-51589844D01*
X109172954Y-51546196D01*
X109243658Y-51539750D01*
X109306622Y-51572553D01*
X109326715Y-51597536D01*
X109346800Y-51630313D01*
X109346804Y-51630318D01*
X109349501Y-51634719D01*
X109501147Y-51809784D01*
X109679349Y-51957730D01*
X109683819Y-51960342D01*
X109687511Y-51962500D01*
X109736232Y-52014140D01*
X109749301Y-52083924D01*
X109722566Y-52149694D01*
X109699589Y-52172045D01*
X109551655Y-52283117D01*
X109391639Y-52450564D01*
X109388728Y-52454832D01*
X109324002Y-52549716D01*
X109269090Y-52594718D01*
X109198565Y-52602889D01*
X109134819Y-52571634D01*
X109124979Y-52559994D01*
X109108538Y-52545835D01*
X109098973Y-52550238D01*
X108322021Y-53327189D01*
X108314408Y-53341132D01*
X108314539Y-53342966D01*
X108318790Y-53349580D01*
X109096307Y-54127096D01*
X109108313Y-54133652D01*
X109134948Y-54113304D01*
X109135827Y-54114454D01*
X109172672Y-54085734D01*
X109243376Y-54079289D01*
X109306340Y-54112092D01*
X109326432Y-54137074D01*
X109346800Y-54170313D01*
X109346806Y-54170321D01*
X109349501Y-54174719D01*
X109501147Y-54349784D01*
X109679349Y-54497730D01*
X109879322Y-54614584D01*
X110095694Y-54697209D01*
X110100760Y-54698240D01*
X110100761Y-54698240D01*
X110153846Y-54709040D01*
X110322656Y-54743385D01*
X110453324Y-54748176D01*
X110548949Y-54751683D01*
X110548953Y-54751683D01*
X110554113Y-54751872D01*
X110559233Y-54751216D01*
X110559235Y-54751216D01*
X110632291Y-54741857D01*
X110783847Y-54722442D01*
X110788795Y-54720957D01*
X110788802Y-54720956D01*
X111000747Y-54657369D01*
X111005690Y-54655886D01*
X111087161Y-54615974D01*
X111209049Y-54556262D01*
X111209052Y-54556260D01*
X111213684Y-54553991D01*
X111402243Y-54419494D01*
X111566303Y-54256005D01*
X111701458Y-54067917D01*
X111804078Y-53860280D01*
X111871408Y-53638671D01*
X111901640Y-53409041D01*
X111903327Y-53340000D01*
X111897032Y-53263434D01*
X111884773Y-53114318D01*
X111884772Y-53114312D01*
X111884349Y-53109167D01*
X111850797Y-52975592D01*
X111829184Y-52889544D01*
X111829183Y-52889540D01*
X111827925Y-52884533D01*
X111735570Y-52672131D01*
X111609764Y-52477665D01*
X111453887Y-52306358D01*
X111449836Y-52303159D01*
X111449832Y-52303155D01*
X111277077Y-52166722D01*
X111236014Y-52108805D01*
X111232782Y-52037882D01*
X111268407Y-51976470D01*
X111282001Y-51965261D01*
X111285872Y-51962500D01*
X111402243Y-51879494D01*
X111566303Y-51716005D01*
X111701458Y-51527917D01*
X111748641Y-51432450D01*
X111801784Y-51324922D01*
X111801785Y-51324920D01*
X111804078Y-51320280D01*
X111871408Y-51098671D01*
X111901640Y-50869041D01*
X111903327Y-50800000D01*
X111897032Y-50723434D01*
X111884773Y-50574318D01*
X111884772Y-50574312D01*
X111884349Y-50569167D01*
X111827925Y-50344533D01*
X111825866Y-50339797D01*
X111737630Y-50136868D01*
X111737628Y-50136865D01*
X111735570Y-50132131D01*
X111609764Y-49937665D01*
X111453887Y-49766358D01*
X111449836Y-49763159D01*
X111449832Y-49763155D01*
X111277077Y-49626722D01*
X111236014Y-49568805D01*
X111232782Y-49497882D01*
X111268407Y-49436470D01*
X111282001Y-49425261D01*
X111285872Y-49422500D01*
X111402243Y-49339494D01*
X111566303Y-49176005D01*
X111701458Y-48987917D01*
X111748641Y-48892450D01*
X111801784Y-48784922D01*
X111801785Y-48784920D01*
X111804078Y-48780280D01*
X111871408Y-48558671D01*
X111901640Y-48329041D01*
X111903327Y-48260000D01*
X111897032Y-48183434D01*
X111884773Y-48034318D01*
X111884772Y-48034312D01*
X111884349Y-48029167D01*
X111841899Y-47860166D01*
X111829184Y-47809544D01*
X111829183Y-47809540D01*
X111827925Y-47804533D01*
X111819608Y-47785405D01*
X111737630Y-47596868D01*
X111737628Y-47596865D01*
X111735570Y-47592131D01*
X111609764Y-47397665D01*
X111576908Y-47361556D01*
X111560134Y-47343122D01*
X111453887Y-47226358D01*
X111449836Y-47223159D01*
X111449832Y-47223155D01*
X111276177Y-47086011D01*
X111276172Y-47086008D01*
X111272123Y-47082810D01*
X111267607Y-47080317D01*
X111267604Y-47080315D01*
X111073879Y-46973373D01*
X111073875Y-46973371D01*
X111069355Y-46970876D01*
X111064486Y-46969152D01*
X111064482Y-46969150D01*
X110855903Y-46895288D01*
X110855899Y-46895287D01*
X110851028Y-46893562D01*
X110845935Y-46892655D01*
X110845932Y-46892654D01*
X110628095Y-46853851D01*
X110628089Y-46853850D01*
X110623006Y-46852945D01*
X110550096Y-46852054D01*
X110396581Y-46850179D01*
X110396579Y-46850179D01*
X110391411Y-46850116D01*
X110162464Y-46885150D01*
X109942314Y-46957106D01*
X109937726Y-46959494D01*
X109937722Y-46959496D01*
X109741461Y-47061663D01*
X109736872Y-47064052D01*
X109732739Y-47067155D01*
X109732736Y-47067157D01*
X109574178Y-47186206D01*
X109551655Y-47203117D01*
X109391639Y-47370564D01*
X109324306Y-47469271D01*
X109269397Y-47514271D01*
X109198872Y-47522442D01*
X109135125Y-47491188D01*
X109114428Y-47466705D01*
X109072571Y-47402004D01*
X109069764Y-47397665D01*
X109036908Y-47361556D01*
X109020134Y-47343122D01*
X108913887Y-47226358D01*
X108909836Y-47223159D01*
X108909832Y-47223155D01*
X108736177Y-47086011D01*
X108736172Y-47086008D01*
X108732123Y-47082810D01*
X108727607Y-47080317D01*
X108727604Y-47080315D01*
X108533879Y-46973373D01*
X108533875Y-46973371D01*
X108529355Y-46970876D01*
X108524486Y-46969152D01*
X108524482Y-46969150D01*
X108315903Y-46895288D01*
X108315899Y-46895287D01*
X108311028Y-46893562D01*
X108305935Y-46892655D01*
X108305932Y-46892654D01*
X108088095Y-46853851D01*
X108088089Y-46853850D01*
X108083006Y-46852945D01*
X108010096Y-46852054D01*
X107856581Y-46850179D01*
X107856579Y-46850179D01*
X107851411Y-46850116D01*
X107707515Y-46872135D01*
X107637152Y-46862667D01*
X107599361Y-46836680D01*
X107263770Y-46501089D01*
X107251384Y-46486677D01*
X107242851Y-46475082D01*
X107242846Y-46475077D01*
X107238508Y-46469182D01*
X107232930Y-46464443D01*
X107232927Y-46464440D01*
X107198232Y-46434965D01*
X107190716Y-46428035D01*
X107185021Y-46422340D01*
X107178880Y-46417482D01*
X107162749Y-46404719D01*
X107159345Y-46401928D01*
X107109297Y-46359409D01*
X107109295Y-46359408D01*
X107103715Y-46354667D01*
X107097199Y-46351339D01*
X107092150Y-46347972D01*
X107087021Y-46344805D01*
X107081284Y-46340266D01*
X107015125Y-46309345D01*
X107011225Y-46307439D01*
X107010857Y-46307251D01*
X106946192Y-46274231D01*
X106939084Y-46272492D01*
X106933441Y-46270393D01*
X106927678Y-46268476D01*
X106921050Y-46265378D01*
X106849583Y-46250513D01*
X106845299Y-46249543D01*
X106774390Y-46232192D01*
X106768788Y-46231844D01*
X106768785Y-46231844D01*
X106763236Y-46231500D01*
X106763238Y-46231464D01*
X106759245Y-46231225D01*
X106755053Y-46230851D01*
X106747885Y-46229360D01*
X106681675Y-46231151D01*
X106670479Y-46231454D01*
X106667072Y-46231500D01*
X102142587Y-46231500D01*
X102068528Y-46207437D01*
X102062098Y-46202765D01*
X102062091Y-46202761D01*
X102056752Y-46198882D01*
X102050724Y-46196198D01*
X102050722Y-46196197D01*
X101888319Y-46123891D01*
X101888318Y-46123891D01*
X101882288Y-46121206D01*
X101788887Y-46101353D01*
X101701944Y-46082872D01*
X101701939Y-46082872D01*
X101695487Y-46081500D01*
X101504513Y-46081500D01*
X101498061Y-46082872D01*
X101498056Y-46082872D01*
X101411112Y-46101353D01*
X101317712Y-46121206D01*
X101311682Y-46123891D01*
X101311681Y-46123891D01*
X101149278Y-46196197D01*
X101149276Y-46196198D01*
X101143248Y-46198882D01*
X101137907Y-46202762D01*
X101137906Y-46202763D01*
X101131473Y-46207437D01*
X100988747Y-46311134D01*
X100984326Y-46316044D01*
X100984325Y-46316045D01*
X100880229Y-46431656D01*
X100860960Y-46453056D01*
X100765473Y-46618444D01*
X100706458Y-46800072D01*
X100705768Y-46806633D01*
X100705768Y-46806635D01*
X100690122Y-46955499D01*
X100686496Y-46990000D01*
X97028500Y-46990000D01*
X97028500Y-44503250D01*
X97030246Y-44482345D01*
X97032770Y-44467344D01*
X97032770Y-44467341D01*
X97033576Y-44462552D01*
X97033729Y-44450000D01*
X97032003Y-44437947D01*
X97031001Y-44411845D01*
X97045340Y-44193078D01*
X97047491Y-44176738D01*
X97096111Y-43932307D01*
X97100375Y-43916394D01*
X97180485Y-43680398D01*
X97186791Y-43665174D01*
X97297016Y-43441658D01*
X97305257Y-43427384D01*
X97443713Y-43220171D01*
X97453746Y-43207095D01*
X97618068Y-43019722D01*
X97629722Y-43008068D01*
X97817095Y-42843746D01*
X97830171Y-42833713D01*
X98037384Y-42695257D01*
X98051658Y-42687016D01*
X98275174Y-42576791D01*
X98290400Y-42570484D01*
X98526394Y-42490375D01*
X98542304Y-42486112D01*
X98664522Y-42461801D01*
X98786738Y-42437491D01*
X98803078Y-42435340D01*
X98951866Y-42425587D01*
X99018237Y-42421237D01*
X99041350Y-42422267D01*
X99044854Y-42422310D01*
X99053724Y-42423691D01*
X99062626Y-42422527D01*
X99062628Y-42422527D01*
X99079449Y-42420327D01*
X99085286Y-42419564D01*
X99101621Y-42418500D01*
X107700510Y-42418500D01*
X107768631Y-42438502D01*
G37*
%TD.AperFunction*%
%TD*%
M02*
