%TF.GenerationSoftware,KiCad,Pcbnew,(6.0.5)*%
%TF.CreationDate,2022-06-03T16:10:37+02:00*%
%TF.ProjectId,sldrlss_stlink,736c6472-6c73-4735-9f73-746c696e6b2e,rev?*%
%TF.SameCoordinates,Original*%
%TF.FileFunction,Legend,Top*%
%TF.FilePolarity,Positive*%
%FSLAX46Y46*%
G04 Gerber Fmt 4.6, Leading zero omitted, Abs format (unit mm)*
G04 Created by KiCad (PCBNEW (6.0.5)) date 2022-06-03 16:10:37*
%MOMM*%
%LPD*%
G01*
G04 APERTURE LIST*
%ADD10C,0.150000*%
%ADD11C,0.120000*%
G04 APERTURE END LIST*
D10*
X99441000Y-43815000D02*
X99441000Y-42672000D01*
X99949000Y-42672000D02*
X99949000Y-43815000D01*
X99441000Y-42672000D02*
X99695000Y-42926000D01*
X99949000Y-43815000D02*
X100330000Y-43815000D01*
X99695000Y-44450000D02*
X100330000Y-43815000D01*
X99695000Y-44450000D02*
X99060000Y-43815000D01*
X99695000Y-42926000D02*
X99949000Y-42672000D01*
X99441000Y-43815000D02*
X99060000Y-43815000D01*
X98004571Y-57051380D02*
X97528380Y-57051380D01*
X97528380Y-56051380D01*
X98766476Y-57051380D02*
X98766476Y-56527571D01*
X98718857Y-56432333D01*
X98623619Y-56384714D01*
X98433142Y-56384714D01*
X98337904Y-56432333D01*
X98766476Y-57003761D02*
X98671238Y-57051380D01*
X98433142Y-57051380D01*
X98337904Y-57003761D01*
X98290285Y-56908523D01*
X98290285Y-56813285D01*
X98337904Y-56718047D01*
X98433142Y-56670428D01*
X98671238Y-56670428D01*
X98766476Y-56622809D01*
X99671238Y-56384714D02*
X99671238Y-57051380D01*
X99242666Y-56384714D02*
X99242666Y-56908523D01*
X99290285Y-57003761D01*
X99385523Y-57051380D01*
X99528380Y-57051380D01*
X99623619Y-57003761D01*
X99671238Y-56956142D01*
X100147428Y-57051380D02*
X100147428Y-56384714D01*
X100147428Y-56575190D02*
X100195047Y-56479952D01*
X100242666Y-56432333D01*
X100337904Y-56384714D01*
X100433142Y-56384714D01*
X101147428Y-57003761D02*
X101052190Y-57051380D01*
X100861714Y-57051380D01*
X100766476Y-57003761D01*
X100718857Y-56908523D01*
X100718857Y-56527571D01*
X100766476Y-56432333D01*
X100861714Y-56384714D01*
X101052190Y-56384714D01*
X101147428Y-56432333D01*
X101195047Y-56527571D01*
X101195047Y-56622809D01*
X100718857Y-56718047D01*
X101623619Y-56384714D02*
X101623619Y-57051380D01*
X101623619Y-56479952D02*
X101671238Y-56432333D01*
X101766476Y-56384714D01*
X101909333Y-56384714D01*
X102004571Y-56432333D01*
X102052190Y-56527571D01*
X102052190Y-57051380D01*
X102385523Y-56384714D02*
X102766476Y-56384714D01*
X102528380Y-56051380D02*
X102528380Y-56908523D01*
X102576000Y-57003761D01*
X102671238Y-57051380D01*
X102766476Y-57051380D01*
X98695047Y-58137571D02*
X98361714Y-58137571D01*
X98361714Y-58661380D02*
X98361714Y-57661380D01*
X98837904Y-57661380D01*
X99218857Y-58661380D02*
X99218857Y-57994714D01*
X99218857Y-57661380D02*
X99171238Y-57709000D01*
X99218857Y-57756619D01*
X99266476Y-57709000D01*
X99218857Y-57661380D01*
X99218857Y-57756619D01*
X100123619Y-58661380D02*
X100123619Y-58137571D01*
X100076000Y-58042333D01*
X99980761Y-57994714D01*
X99790285Y-57994714D01*
X99695047Y-58042333D01*
X100123619Y-58613761D02*
X100028380Y-58661380D01*
X99790285Y-58661380D01*
X99695047Y-58613761D01*
X99647428Y-58518523D01*
X99647428Y-58423285D01*
X99695047Y-58328047D01*
X99790285Y-58280428D01*
X100028380Y-58280428D01*
X100123619Y-58232809D01*
X101028380Y-58613761D02*
X100933142Y-58661380D01*
X100742666Y-58661380D01*
X100647428Y-58613761D01*
X100599809Y-58566142D01*
X100552190Y-58470904D01*
X100552190Y-58185190D01*
X100599809Y-58089952D01*
X100647428Y-58042333D01*
X100742666Y-57994714D01*
X100933142Y-57994714D01*
X101028380Y-58042333D01*
X101456952Y-58661380D02*
X101456952Y-57661380D01*
X101552190Y-58280428D02*
X101837904Y-58661380D01*
X101837904Y-57994714D02*
X101456952Y-58375666D01*
X102782857Y-44092761D02*
X102925714Y-44140380D01*
X103163809Y-44140380D01*
X103259047Y-44092761D01*
X103306666Y-44045142D01*
X103354285Y-43949904D01*
X103354285Y-43854666D01*
X103306666Y-43759428D01*
X103259047Y-43711809D01*
X103163809Y-43664190D01*
X102973333Y-43616571D01*
X102878095Y-43568952D01*
X102830476Y-43521333D01*
X102782857Y-43426095D01*
X102782857Y-43330857D01*
X102830476Y-43235619D01*
X102878095Y-43188000D01*
X102973333Y-43140380D01*
X103211428Y-43140380D01*
X103354285Y-43188000D01*
X103687619Y-43140380D02*
X103925714Y-44140380D01*
X104116190Y-43426095D01*
X104306666Y-44140380D01*
X104544761Y-43140380D01*
X104925714Y-44140380D02*
X104925714Y-43140380D01*
X105163809Y-43140380D01*
X105306666Y-43188000D01*
X105401904Y-43283238D01*
X105449523Y-43378476D01*
X105497142Y-43568952D01*
X105497142Y-43711809D01*
X105449523Y-43902285D01*
X105401904Y-43997523D01*
X105306666Y-44092761D01*
X105163809Y-44140380D01*
X104925714Y-44140380D01*
D11*
%TO.C,J2*%
X103365000Y-45025000D02*
X103365000Y-45090000D01*
X99835000Y-45025000D02*
X99835000Y-45090000D01*
X99835000Y-45025000D02*
X103365000Y-45025000D01*
X99835000Y-53970000D02*
X99835000Y-54035000D01*
X99835000Y-54035000D02*
X103365000Y-54035000D01*
X98510000Y-45090000D02*
X99835000Y-45090000D01*
X103365000Y-53970000D02*
X103365000Y-54035000D01*
%TD*%
M02*
